<svg width="400" height="400" viewBox="0 0 400 400" fill="none" xmlns="http://www.w3.org/2000/svg">
  <defs>
    <pattern id="anime-pattern" patternUnits="userSpaceOnUse" width="100" height="100">
      <!-- Anime eye -->
      <path d="M20 50C20 40 30 30 50 30C70 30 80 40 80 50C80 60 70 70 50 70C30 70 20 60 20 50Z" stroke="#FF6B00" stroke-width="2" fill="none"/>
      <circle cx="50" cy="50" r="10" fill="#FF6B00" fill-opacity="0.5"/>
      <circle cx="53" cy="47" r="3" fill="#FFFFFF"/>
      
      <!-- Anime star -->
      <path d="M15 15L18 5L21 15L30 18L21 21L18 30L15 21L5 18L15 15Z" fill="#FF6B00" fill-opacity="0.3"/>
      
      <!-- Anime swirl -->
      <path d="M85 15C90 15 95 20 95 25C95 30 90 35 85 35C80 35 75 30 75 25" stroke="#FF6B00" stroke-width="2" fill="none"/>
      
      <!-- Anime heart -->
      <path d="M10 85C10 80 15 75 20 75C25 75 30 80 30 85L20 95L10 85Z" fill="#FF6B00" fill-opacity="0.3"/>
      <path d="M30 85C30 80 35 75 40 75C45 75 50 80 50 85L40 95L30 85Z" fill="#FF6B00" fill-opacity="0.3"/>
      
      <!-- Anime lightning bolt -->
      <path d="M70 80L80 70L75 80L85 85L70 95" stroke="#FF6B00" stroke-width="2" fill="none"/>
    </pattern>
  </defs>
  
  <rect width="400" height="400" fill="url(#anime-pattern)"/>
</svg> 